<mxfile host="app.diagrams.net" modified="2023-07-06T01:59:40.660Z" agent="Mozilla/5.0 (Windows NT 10.0; Win64; x64) AppleWebKit/537.36 (KHTML, like Gecko) Chrome/114.0.0.0 Safari/537.36" etag="cAUDxPFXMtY0eevbzcJr" version="21.6.1" type="device">
  <diagram name="Página-1" id="P56ymBtjBA4KKc1k9-aa">
    <mxGraphModel dx="2261" dy="748" grid="1" gridSize="10" guides="1" tooltips="1" connect="1" arrows="1" fold="1" page="1" pageScale="1" pageWidth="827" pageHeight="1169" math="0" shadow="0">
      <root>
        <mxCell id="0" />
        <mxCell id="1" parent="0" />
        <mxCell id="_1Gtyo98elIFZVGHZEIG-31" value="" style="group" vertex="1" connectable="0" parent="1">
          <mxGeometry x="450" y="50" width="360" height="469" as="geometry" />
        </mxCell>
        <mxCell id="_1Gtyo98elIFZVGHZEIG-48" value="" style="group" vertex="1" connectable="0" parent="_1Gtyo98elIFZVGHZEIG-31">
          <mxGeometry x="10" y="-30" width="350" height="465" as="geometry" />
        </mxCell>
        <mxCell id="_1Gtyo98elIFZVGHZEIG-21" value="" style="rounded=1;arcSize=10;dashed=0;fillColor=none;gradientColor=none;strokeWidth=2;" vertex="1" parent="_1Gtyo98elIFZVGHZEIG-48">
          <mxGeometry y="14" width="350" height="451" as="geometry" />
        </mxCell>
        <mxCell id="_1Gtyo98elIFZVGHZEIG-22" value="" style="dashed=0;html=1;shape=mxgraph.aws3.cloud;fillColor=#F58536;gradientColor=none;dashed=0;" vertex="1" parent="_1Gtyo98elIFZVGHZEIG-48">
          <mxGeometry x="20" width="52" height="36" as="geometry" />
        </mxCell>
        <mxCell id="_1Gtyo98elIFZVGHZEIG-7" value="API&lt;br&gt;PROGRAMA&lt;br&gt;WS&lt;br&gt;Lambda" style="whiteSpace=wrap;html=1;aspect=fixed;" vertex="1" parent="_1Gtyo98elIFZVGHZEIG-31">
          <mxGeometry x="39" y="84" width="80" height="80" as="geometry" />
        </mxCell>
        <mxCell id="_1Gtyo98elIFZVGHZEIG-8" value="" style="shape=cylinder3;whiteSpace=wrap;html=1;boundedLbl=1;backgroundOutline=1;size=15;" vertex="1" parent="_1Gtyo98elIFZVGHZEIG-31">
          <mxGeometry x="220" y="84" width="60" height="80" as="geometry" />
        </mxCell>
        <mxCell id="_1Gtyo98elIFZVGHZEIG-9" style="edgeStyle=orthogonalEdgeStyle;rounded=0;orthogonalLoop=1;jettySize=auto;html=1;" edge="1" parent="_1Gtyo98elIFZVGHZEIG-31" source="_1Gtyo98elIFZVGHZEIG-7" target="_1Gtyo98elIFZVGHZEIG-8">
          <mxGeometry relative="1" as="geometry" />
        </mxCell>
        <mxCell id="_1Gtyo98elIFZVGHZEIG-29" value="" style="group" vertex="1" connectable="0" parent="1">
          <mxGeometry x="-150" y="19" width="430" height="481" as="geometry" />
        </mxCell>
        <mxCell id="_1Gtyo98elIFZVGHZEIG-28" value="" style="outlineConnect=0;dashed=0;verticalLabelPosition=bottom;verticalAlign=top;align=center;html=1;shape=mxgraph.aws3.generic;fillColor=#5294CF;gradientColor=none;" vertex="1" parent="_1Gtyo98elIFZVGHZEIG-29">
          <mxGeometry x="37.28323699421965" width="61.517341040462426" height="50.10416666666667" as="geometry" />
        </mxCell>
        <mxCell id="_1Gtyo98elIFZVGHZEIG-25" value="" style="rounded=1;arcSize=10;dashed=0;fillColor=none;gradientColor=none;strokeWidth=2;" vertex="1" parent="_1Gtyo98elIFZVGHZEIG-29">
          <mxGeometry y="13.027083333333335" width="410.11560693641616" height="454.9458333333334" as="geometry" />
        </mxCell>
        <mxCell id="_1Gtyo98elIFZVGHZEIG-32" value="" style="ellipse;whiteSpace=wrap;html=1;aspect=fixed;" vertex="1" parent="_1Gtyo98elIFZVGHZEIG-29">
          <mxGeometry x="42.8757225433526" y="199.41458333333335" width="19.039583333333336" height="19.039583333333336" as="geometry" />
        </mxCell>
        <mxCell id="_1Gtyo98elIFZVGHZEIG-33" value="" style="ellipse;whiteSpace=wrap;html=1;aspect=fixed;" vertex="1" parent="_1Gtyo98elIFZVGHZEIG-29">
          <mxGeometry x="161.56069364161849" y="200.41666666666669" width="19.039583333333336" height="19.039583333333336" as="geometry" />
        </mxCell>
        <mxCell id="_1Gtyo98elIFZVGHZEIG-37" value="ID&lt;br&gt;ID&lt;br&gt;ID&lt;br&gt;ID" style="rounded=0;whiteSpace=wrap;html=1;" vertex="1" parent="_1Gtyo98elIFZVGHZEIG-29">
          <mxGeometry x="66.48843930635839" y="230.47916666666669" width="49.71098265895954" height="70.14583333333334" as="geometry" />
        </mxCell>
        <mxCell id="_1Gtyo98elIFZVGHZEIG-1" value="Arduino + Leitor RFID" style="shape=process;whiteSpace=wrap;html=1;backgroundOutline=1;" vertex="1" parent="_1Gtyo98elIFZVGHZEIG-29">
          <mxGeometry x="37.28323699421965" y="140.29166666666669" width="149.1329479768786" height="60.12500000000001" as="geometry" />
        </mxCell>
        <mxCell id="_1Gtyo98elIFZVGHZEIG-2" value="RFID" style="shape=card;whiteSpace=wrap;html=1;" vertex="1" parent="_1Gtyo98elIFZVGHZEIG-29">
          <mxGeometry x="223.69942196531792" y="50.10416666666667" width="106.878612716763" height="70.14583333333334" as="geometry" />
        </mxCell>
        <mxCell id="_1Gtyo98elIFZVGHZEIG-4" value="" style="group" vertex="1" connectable="0" parent="_1Gtyo98elIFZVGHZEIG-29">
          <mxGeometry x="236.13" y="50.1" width="163.87" height="70.15" as="geometry" />
        </mxCell>
        <mxCell id="_1Gtyo98elIFZVGHZEIG-3" value="CAIXA" style="strokeWidth=2;html=1;shape=mxgraph.flowchart.display;whiteSpace=wrap;" vertex="1" parent="_1Gtyo98elIFZVGHZEIG-4">
          <mxGeometry x="69.3296153846154" y="10.021428571428572" width="94.54038461538462" height="50.10714285714286" as="geometry" />
        </mxCell>
        <mxCell id="_1Gtyo98elIFZVGHZEIG-15" value="C" style="text;html=1;strokeColor=none;fillColor=none;align=center;verticalAlign=middle;whiteSpace=wrap;rounded=0;" vertex="1" parent="_1Gtyo98elIFZVGHZEIG-29">
          <mxGeometry x="135.42" y="181" width="60" height="30" as="geometry" />
        </mxCell>
        <mxCell id="_1Gtyo98elIFZVGHZEIG-17" value="&lt;h1&gt;Brainstorm - possíveis aplicações&lt;/h1&gt;&lt;p&gt;Acompanhamento de encomendas em tempo real&lt;/p&gt;&lt;p&gt;Controle de estoque de Almoxarifado&lt;/p&gt;&lt;p&gt;Controle de estoque de produção&lt;/p&gt;&lt;p&gt;Pasta de documento? Hospital / Jurídico / Contábil?&lt;br&gt;&lt;/p&gt;&lt;p&gt;Controle de Livros Biblioteca / Empréstimos&lt;/p&gt;&lt;p&gt;Gestão patrimonial da empresa (Monitor, teclado, cadeira, cafeteira)&lt;/p&gt;" style="text;html=1;spacing=5;spacingTop=-20;whiteSpace=wrap;overflow=hidden;rounded=0;" vertex="1" parent="1">
          <mxGeometry x="-550" y="50" width="380" height="430" as="geometry" />
        </mxCell>
        <mxCell id="_1Gtyo98elIFZVGHZEIG-30" style="edgeStyle=orthogonalEdgeStyle;rounded=0;orthogonalLoop=1;jettySize=auto;html=1;dashed=1;" edge="1" parent="1" source="_1Gtyo98elIFZVGHZEIG-25" target="_1Gtyo98elIFZVGHZEIG-21">
          <mxGeometry relative="1" as="geometry">
            <mxPoint x="90" y="320" as="targetPoint" />
          </mxGeometry>
        </mxCell>
      </root>
    </mxGraphModel>
  </diagram>
</mxfile>
